<mxfile host="app.diagrams.net" modified="2024-04-17T14:50:18.773Z" agent="Mozilla/5.0 (Windows NT 10.0; Win64; x64) AppleWebKit/537.36 (KHTML, like Gecko) Chrome/114.0.0.0 Safari/537.36" etag="3Fn4cZak19NOpDEbgovr" version="24.2.5" type="github">
  <diagram name="Page-1" id="xadw-RgM7V3dirTDwN17">
    <mxGraphModel dx="1259" dy="679" grid="1" gridSize="10" guides="1" tooltips="1" connect="1" arrows="1" fold="1" page="1" pageScale="1" pageWidth="1169" pageHeight="1654" math="0" shadow="0">
      <root>
        <mxCell id="0" />
        <mxCell id="1" parent="0" />
        <mxCell id="5Xhd3smjNTj492Ac4ziF-23" value="" style="rounded=0;whiteSpace=wrap;html=1;fillColor=#fff2cc;strokeColor=none;gradientColor=none;strokeWidth=3;fontColor=#d6b656;" vertex="1" parent="1">
          <mxGeometry x="50" y="210" width="1000" height="340" as="geometry" />
        </mxCell>
        <mxCell id="M_SQ8xV0aKY_EdB94nSm-1" value="Base adresse Dordogne" style="rounded=0;whiteSpace=wrap;html=1;" parent="1" vertex="1">
          <mxGeometry x="80" y="410" width="120" height="60" as="geometry" />
        </mxCell>
        <mxCell id="5Xhd3smjNTj492Ac4ziF-18" style="edgeStyle=orthogonalEdgeStyle;rounded=0;orthogonalLoop=1;jettySize=auto;html=1;entryX=0;entryY=0.5;entryDx=0;entryDy=0;" edge="1" parent="1" source="M_SQ8xV0aKY_EdB94nSm-3" target="5Xhd3smjNTj492Ac4ziF-16">
          <mxGeometry relative="1" as="geometry" />
        </mxCell>
        <mxCell id="5Xhd3smjNTj492Ac4ziF-21" style="rounded=0;orthogonalLoop=1;jettySize=auto;html=1;entryX=0.5;entryY=1;entryDx=0;entryDy=0;strokeColor=#FF0000;endArrow=none;endFill=0;dashed=1;dashPattern=1 2;strokeWidth=2;" edge="1" parent="1" source="M_SQ8xV0aKY_EdB94nSm-3" target="5Xhd3smjNTj492Ac4ziF-20">
          <mxGeometry relative="1" as="geometry" />
        </mxCell>
        <mxCell id="M_SQ8xV0aKY_EdB94nSm-3" value="Update à null les erreurs des adresses à MAJ" style="rounded=0;whiteSpace=wrap;html=1;" parent="1" vertex="1">
          <mxGeometry x="330" y="360" width="120" height="60" as="geometry" />
        </mxCell>
        <mxCell id="M_SQ8xV0aKY_EdB94nSm-11" style="edgeStyle=orthogonalEdgeStyle;rounded=0;orthogonalLoop=1;jettySize=auto;html=1;entryX=0;entryY=0.5;entryDx=0;entryDy=0;" parent="1" source="M_SQ8xV0aKY_EdB94nSm-4" target="M_SQ8xV0aKY_EdB94nSm-6" edge="1">
          <mxGeometry relative="1" as="geometry" />
        </mxCell>
        <mxCell id="M_SQ8xV0aKY_EdB94nSm-13" style="edgeStyle=orthogonalEdgeStyle;rounded=0;orthogonalLoop=1;jettySize=auto;html=1;entryX=0.5;entryY=0;entryDx=0;entryDy=0;" parent="1" source="M_SQ8xV0aKY_EdB94nSm-4" target="M_SQ8xV0aKY_EdB94nSm-5" edge="1">
          <mxGeometry relative="1" as="geometry" />
        </mxCell>
        <mxCell id="M_SQ8xV0aKY_EdB94nSm-4" value="Process publication BAN" style="rounded=0;whiteSpace=wrap;html=1;" parent="1" vertex="1">
          <mxGeometry x="710" y="360" width="120" height="60" as="geometry" />
        </mxCell>
        <mxCell id="M_SQ8xV0aKY_EdB94nSm-16" style="edgeStyle=orthogonalEdgeStyle;rounded=0;orthogonalLoop=1;jettySize=auto;html=1;entryX=0.5;entryY=0;entryDx=0;entryDy=0;" parent="1" source="M_SQ8xV0aKY_EdB94nSm-5" target="M_SQ8xV0aKY_EdB94nSm-7" edge="1">
          <mxGeometry relative="1" as="geometry" />
        </mxCell>
        <mxCell id="5Xhd3smjNTj492Ac4ziF-25" style="edgeStyle=orthogonalEdgeStyle;rounded=0;orthogonalLoop=1;jettySize=auto;html=1;exitX=1;exitY=0.5;exitDx=0;exitDy=0;entryX=0;entryY=0.5;entryDx=0;entryDy=0;dashed=1;dashPattern=1 2;endArrow=none;endFill=0;strokeWidth=2;strokeColor=#FF0000;" edge="1" parent="1" source="M_SQ8xV0aKY_EdB94nSm-5" target="5Xhd3smjNTj492Ac4ziF-24">
          <mxGeometry relative="1" as="geometry" />
        </mxCell>
        <mxCell id="M_SQ8xV0aKY_EdB94nSm-5" value="Identification des adresses en erreur pour correction" style="rounded=0;whiteSpace=wrap;html=1;" parent="1" vertex="1">
          <mxGeometry x="710" y="470" width="120" height="60" as="geometry" />
        </mxCell>
        <mxCell id="M_SQ8xV0aKY_EdB94nSm-12" style="edgeStyle=orthogonalEdgeStyle;rounded=0;orthogonalLoop=1;jettySize=auto;html=1;entryX=0;entryY=0.5;entryDx=0;entryDy=0;" parent="1" source="M_SQ8xV0aKY_EdB94nSm-6" target="M_SQ8xV0aKY_EdB94nSm-8" edge="1">
          <mxGeometry relative="1" as="geometry" />
        </mxCell>
        <mxCell id="5Xhd3smjNTj492Ac4ziF-27" style="edgeStyle=orthogonalEdgeStyle;rounded=0;orthogonalLoop=1;jettySize=auto;html=1;dashed=1;dashPattern=1 2;endArrow=none;endFill=0;strokeWidth=2;strokeColor=#FF0000;" edge="1" parent="1" source="M_SQ8xV0aKY_EdB94nSm-6" target="5Xhd3smjNTj492Ac4ziF-26">
          <mxGeometry relative="1" as="geometry" />
        </mxCell>
        <mxCell id="M_SQ8xV0aKY_EdB94nSm-6" value="Maj com suivi tech (date publication BAN)" style="rounded=0;whiteSpace=wrap;html=1;" parent="1" vertex="1">
          <mxGeometry x="900" y="360" width="120" height="60" as="geometry" />
        </mxCell>
        <mxCell id="M_SQ8xV0aKY_EdB94nSm-7" value="Visualisation dans PERIGEO" style="rounded=0;whiteSpace=wrap;html=1;" parent="1" vertex="1">
          <mxGeometry x="710" y="580" width="120" height="60" as="geometry" />
        </mxCell>
        <mxCell id="M_SQ8xV0aKY_EdB94nSm-8" value="Visualisation dans PERIGEO" style="rounded=0;whiteSpace=wrap;html=1;" parent="1" vertex="1">
          <mxGeometry x="1090" y="360" width="120" height="60" as="geometry" />
        </mxCell>
        <mxCell id="5Xhd3smjNTj492Ac4ziF-13" value="" style="edgeStyle=orthogonalEdgeStyle;rounded=0;orthogonalLoop=1;jettySize=auto;html=1;dashed=1;dashPattern=1 2;endArrow=none;endFill=0;strokeWidth=2;strokeColor=#FF0000;" edge="1" parent="1" source="5Xhd3smjNTj492Ac4ziF-1" target="5Xhd3smjNTj492Ac4ziF-12">
          <mxGeometry relative="1" as="geometry" />
        </mxCell>
        <mxCell id="5Xhd3smjNTj492Ac4ziF-1" value="Vue commune date dépot &amp;lt; dernière mise à jour adresse" style="rounded=0;whiteSpace=wrap;html=1;" vertex="1" parent="1">
          <mxGeometry x="80" y="310" width="120" height="60" as="geometry" />
        </mxCell>
        <mxCell id="5Xhd3smjNTj492Ac4ziF-7" style="rounded=0;orthogonalLoop=1;jettySize=auto;html=1;exitX=0;exitY=0.5;exitDx=0;exitDy=0;exitPerimeter=0;entryX=0;entryY=0.5;entryDx=0;entryDy=0;endArrow=classic;endFill=1;strokeWidth=1;" edge="1" parent="1" source="5Xhd3smjNTj492Ac4ziF-2" target="M_SQ8xV0aKY_EdB94nSm-3">
          <mxGeometry relative="1" as="geometry" />
        </mxCell>
        <mxCell id="5Xhd3smjNTj492Ac4ziF-2" value="" style="strokeWidth=1;html=1;shape=mxgraph.flowchart.annotation_2;align=left;labelPosition=right;pointerEvents=1;rotation=-180;" vertex="1" parent="1">
          <mxGeometry x="230" y="340" width="50" height="100" as="geometry" />
        </mxCell>
        <mxCell id="5Xhd3smjNTj492Ac4ziF-4" style="rounded=0;orthogonalLoop=1;jettySize=auto;html=1;exitX=1;exitY=0.5;exitDx=0;exitDy=0;entryX=1;entryY=1;entryDx=0;entryDy=0;entryPerimeter=0;strokeColor=default;endArrow=none;endFill=0;strokeWidth=1;" edge="1" parent="1" source="5Xhd3smjNTj492Ac4ziF-1" target="5Xhd3smjNTj492Ac4ziF-2">
          <mxGeometry relative="1" as="geometry" />
        </mxCell>
        <mxCell id="5Xhd3smjNTj492Ac4ziF-5" style="rounded=0;orthogonalLoop=1;jettySize=auto;html=1;entryX=1;entryY=0;entryDx=0;entryDy=0;entryPerimeter=0;strokeWidth=1;endArrow=none;endFill=0;" edge="1" parent="1" source="M_SQ8xV0aKY_EdB94nSm-1" target="5Xhd3smjNTj492Ac4ziF-2">
          <mxGeometry relative="1" as="geometry">
            <Array as="points">
              <mxPoint x="210" y="440" />
            </Array>
          </mxGeometry>
        </mxCell>
        <mxCell id="5Xhd3smjNTj492Ac4ziF-12" value="vue_commune_&lt;div style=&quot;font-size: 10px;&quot;&gt;update_api_depot&lt;/div&gt;" style="rounded=0;whiteSpace=wrap;html=1;strokeColor=none;fillColor=none;fontStyle=2;fontColor=#fb0404;fontSize=10;" vertex="1" parent="1">
          <mxGeometry x="80" y="210" width="120" height="60" as="geometry" />
        </mxCell>
        <mxCell id="5Xhd3smjNTj492Ac4ziF-19" style="edgeStyle=orthogonalEdgeStyle;rounded=0;orthogonalLoop=1;jettySize=auto;html=1;entryX=0;entryY=0.5;entryDx=0;entryDy=0;" edge="1" parent="1" source="5Xhd3smjNTj492Ac4ziF-16" target="M_SQ8xV0aKY_EdB94nSm-4">
          <mxGeometry relative="1" as="geometry" />
        </mxCell>
        <mxCell id="5Xhd3smjNTj492Ac4ziF-16" value="Adresses à publier sur la BAN" style="rounded=0;whiteSpace=wrap;html=1;" vertex="1" parent="1">
          <mxGeometry x="510" y="360" width="120" height="60" as="geometry" />
        </mxCell>
        <mxCell id="5Xhd3smjNTj492Ac4ziF-20" value="&lt;div style=&quot;text-align: left; font-size: 10px;&quot;&gt;&lt;span style=&quot;background-color: initial; font-size: 10px;&quot;&gt;update &lt;b style=&quot;font-size: 10px;&quot;&gt;l_adr_bal_s_24&lt;/b&gt; set erreur_ban = null, warning_ban = null from &lt;b style=&quot;font-size: 10px;&quot;&gt;vue_adresses_update_validateur&lt;/b&gt; where l_adr_bal_s_24.id_ban_adresse = vue_adresses_update_validateur.id_ban_adresse&lt;/span&gt;&lt;/div&gt;" style="rounded=0;whiteSpace=wrap;html=1;strokeColor=none;fillColor=none;fontStyle=2;fontColor=#fb0404;fontSize=10;" vertex="1" parent="1">
          <mxGeometry x="255" y="220" width="270" height="80" as="geometry" />
        </mxCell>
        <mxCell id="5Xhd3smjNTj492Ac4ziF-24" value="l_adr_bal_s_24 (erreur_ban, warning_ban)" style="rounded=0;whiteSpace=wrap;html=1;strokeColor=none;fillColor=none;fontStyle=2;fontColor=#fb0404;fontSize=10;align=left;" vertex="1" parent="1">
          <mxGeometry x="880" y="470" width="160" height="60" as="geometry" />
        </mxCell>
        <mxCell id="5Xhd3smjNTj492Ac4ziF-26" value="l_adr_suivadr_suivitech_a_24 (date_depot_ban)" style="rounded=0;whiteSpace=wrap;html=1;strokeColor=none;fillColor=none;fontStyle=2;fontColor=#fb0404;fontSize=10;align=left;" vertex="1" parent="1">
          <mxGeometry x="880" y="260" width="160" height="60" as="geometry" />
        </mxCell>
        <mxCell id="5Xhd3smjNTj492Ac4ziF-28" value="C:\PARTAGE_FME\adresse\api_depot\api_depot&#xa;C:\PARTAGE_FME\adresse\api_depot\lanceur_api_depot" style="text;whiteSpace=wrap;fontColor=#ffa51f;fontStyle=1" vertex="1" parent="1">
          <mxGeometry x="60" y="510" width="320" height="40" as="geometry" />
        </mxCell>
        <mxCell id="5Xhd3smjNTj492Ac4ziF-30" value="&lt;b&gt;Nom&lt;/b&gt; : Process api de dépot adresses&lt;div&gt;&lt;b&gt;Auteur &lt;/b&gt;: EP&lt;/div&gt;&lt;div&gt;&lt;b&gt;Description&lt;/b&gt;: process de publication des adresses via l&#39;api de dépot de la BAN et dépendances&lt;/div&gt;&lt;div&gt;&lt;b&gt;Outils &lt;/b&gt;: FME, BDD, PERIGEO&lt;/div&gt;&lt;div&gt;&lt;b&gt;Tâche planifiée&lt;/b&gt; : adresse_api_depot (serveur FME)&lt;span style=&quot;color: rgba(0, 0, 0, 0); font-family: monospace; font-size: 0px; text-wrap: nowrap; background-color: initial;&quot;&gt;%3CmxGraphModel%3E%3Croot%3E%3CmxCell%20id%3D%220%22%2F%3E%3CmxCell%20id%3D%221%22%20parent%3D%220%22%2F%3E%3CmxCell%20id%3D%222%22%20value%3D%22%22%20style%3D%22rounded%3D0%3BwhiteSpace%3Dwrap%3Bhtml%3D1%3BfillColor%3D%23fff2cc%3BstrokeColor%3D%23d6b656%3BgradientColor%3Dnone%3BstrokeWidth%3D3%3BfontColor%3D%23d6b656%3B%22%20vertex%3D%221%22%20parent%3D%221%22%3E%3CmxGeometry%20x%3D%2250%22%20y%3D%22210%22%20width%3D%221000%22%20height%3D%22340%22%20as%3D%22geometry%22%2F%3E%3C%2FmxCell%3E%3C%2Froot%3E%3C%2FmxGraphModel%3E&lt;/span&gt;&lt;span style=&quot;background-color: initial; color: rgba(0, 0, 0, 0); font-family: monospace; font-size: 0px; text-wrap: nowrap;&quot;&gt;%3CmxGraphModel%3E%3Croot%3E%3CmxCell%20id%3D%220%22%2F%3E%3CmxCell%20id%3D%221%22%20parent%3D%220%22%2F%3E%3CmxCell%20id%3D%222%22%20value%3D%22%22%20style%3D%22rounded%3D0%3BwhiteSpace%3Dwrap%3Bhtml%3D1%3BfillColor%3D%23fff2cc%3BstrokeColor%3D%23d6b656%3BgradientColor%3Dnone%3BstrokeWidth%3D3%3BfontColor%3D%23d6b656%3B%22%20vertex%3D%221%22%20parent%3D%221%22%3E%3CmxGeometry%20x%3D%2250%22%20y%3D%22210%22%20width%3D%221000%22%20height%3D%22340%22%20as%3D%22geometry%22%2F%3E%3C%2FmxCell%3E%3C%2Froot%3E%3C%2FmxGraphModel%3E&lt;/span&gt;&lt;/div&gt;" style="rounded=0;whiteSpace=wrap;html=1;fillColor=#dae8fc;strokeColor=#6c8ebf;strokeWidth=3;align=left;verticalAlign=top;" vertex="1" parent="1">
          <mxGeometry x="50" y="90" width="1000" height="110" as="geometry" />
        </mxCell>
        <mxCell id="5Xhd3smjNTj492Ac4ziF-33" value="Script FME" style="text;whiteSpace=wrap;fontColor=#ffa51f;fontStyle=1;align=center;verticalAlign=middle;fontSize=17;" vertex="1" parent="1">
          <mxGeometry x="610" y="260" width="140" height="30" as="geometry" />
        </mxCell>
      </root>
    </mxGraphModel>
  </diagram>
</mxfile>
